<xml version="1.0" encoding="UTF-8">
<svg viewBox="0 0 512 512"  version="1.1" xmlns="http://www.w3.org/2000/svg">
 
         <symbol id="credit" viewBox="0 0 512 512">
         
          <rect rx="25" ry="25" x="0" y="70" width="512" height="372" fill=" #f0c41b "/>   
          <rect x="0" y="112" width="512" height="70" fill=" #806f5e "/>      
          <rect rx="10" ry="10" x="44" y="238" width="100" height="20" fill=" #f9eab0 "/>  
          <rect rx="10" ry="10" x="163" y="238" width="100" height="20" fill=" #f9eab0 "/>
          <rect class="rect_1-3" rx="9" ry="9" x="44" y="281" width="24" height="16" fill=" #f9eab0" />
          <rect class="rect_1-3" rx="9" ry="9" x="139" y="283" width="24" height="16" fill=" #f9eab0" />
          <rect class="rect_2-4" rx="9" ry="9" x="88" y="281" width="33" height="16" fill=" #f9eab0 "/>
          <rect class="rect_2-4" rx="9" ry="9" x="188" y="281" width="30" height="16" fill=" #f9eab0 "/>
          <circle r="8" cx="254" cy="289" fill="#f9eab0" />
          <circle r="43" cx="352" cy="337" fill="#db2215" />
          <circle r="43" cx="414" cy="337" fill="#245ea9" />
          
    </symbol>
      

    <symbol id="sadd" viewBox="0 0 512 512">  
    <circle r="256" cx="256" cy="256" fill="#fbd971" stroke="none"/>
    <line x1="87" y1="183" x2="207" y2="183" stroke="#f29c1f" stroke-width="30" stroke-linecap="round"/>  
    <line x1="304" y1="183" x2="424" y2="183" stroke="#f29c1f" stroke-width="30" stroke-linecap="round"/>
    <line x1="134" y1="377" x2="377" y2="377" stroke="#f0c419" stroke-width="30" stroke-linecap="round"/>   
    </symbol>


     <symbol id="calc" viewBox="0 0 512 512">
         <rect rx="35" ry="35" x="60" y="0" width="392" height="512" fill=" #000000 "/>
         <rect rx="25" ry="25" x="103" y="60" width="300" height="86"  fill="#ffffff"/> 
         <line x1="165" y1="195" x2="165" y2="318" stroke="#ffffff" stroke-width="30" stroke-linecap="round"/>
         <line x1="103" y1="258" x2="227" y2="258" stroke="#ffffff" stroke-width="30" stroke-linecap="round"/>  
         <line x1="285" y1="258" x2="395" y2="258" stroke="#ffffff" stroke-width="30" stroke-linecap="round"/>
         <line x1="122" y1="451" x2="209" y2="369" stroke="#ffffff" stroke-width="30" stroke-linecap="round"/>
         <line x1="209" y1="451" x2="122" y2="369" stroke="#ffffff" stroke-width="30" stroke-linecap="round"/> 
         <line x1="299" y1="455" x2="386" y2="372" stroke="#ffffff" stroke-width="30" stroke-linecap="round"/>   
         <circle r="17" cx="310" cy="377" fill="#ffffff" />
         <circle r="17" cx="382" cy="442" fill="#ffffff" /> 
       </symbol>
 
    <symbol id="corona" viewBox="0 0 512 512">     
    <polygon points="115,390 43,202 159,289 255,94 350 292, 470 203, 399 391" fill="#ffffff" stroke-linejoin="round" stroke="#000000" stroke-width="30"/> 
    <line x1="93" y1="454" x2="418" y2="454" stroke="#000000" stroke-width="30" stroke-linecap="round"/>  
   </symbol>
  
  



  
   <symbol id="shape" viewBox="0 0 360 540">
 <g transform="translate(0,-512.36)">
  <rect x=".5" y="512.86" width="359" height="539" rx="29.944" fill="#fff" stroke="#000"/>


  <path d="m20 542.36v5h7.6v45h5v-45h7.4v-5h-12.4z"/>
  <path d="m320 1022.4v-5h7.6v-45h5v45h7.4v5h-12.4z"/>
  <path d="m180 742.36c-1.333 6.667-2.855 8.392-5.333 12-2.135 3.109-5.122 5.562-8 8-2.917 2.471-6.248 4.408-9.333 6.667-3.586 2.625-7.819 4.588-10.667 8-3.184 3.815-6.667 8.364-6.667 13.333 0 3.975 2.408 7.975 5.333 10.667 3.523 3.241 8.548 5.444 13.333 5.333 5.369-0.124 10.8-2.94 14.667-6.667 2.862-2.758 5.333-10.667 5.333-10.667v2.667c0 1.333-0.133 7.29-1.333 10.667-1.404 3.951-3.83 7.579-6.667 10.667-3.01 3.273-10.667 8-10.667 8v1.333s10.612-2.221 16-2.667c2.658-0.22 5.342-0.22 8 0 5.388 0.446 16 2.667 16 2.667v-1.333s-7.66-4.727-10.667-8c-2.836-3.088-5.263-6.716-6.667-10.667-1.2-3.376-1.333-10.667-1.333-10.667v-2.667s2.471 7.908 5.333 10.667c3.867 3.726 9.298 6.543 14.667 6.667 4.786 0.11 9.811-2.092 13.333-5.333 2.925-2.692 5.333-6.691 5.333-10.667 0-4.969-3.483-9.518-6.667-13.333-2.848-3.412-7.08-5.375-10.667-8-3.085-2.258-6.416-4.195-9.333-6.667-2.878-2.438-5.865-4.891-8-8-2.478-3.608-4-5.333-5.333-12"/>
  <path d="m30 602.36c-0.5 2.5-1.071 3.147-2 4.5-0.801 1.166-1.921 2.086-3 3-1.094 0.927-2.343 1.653-3.5 2.5-1.345 0.984-2.932 1.72-4 3-1.194 1.431-2.5 3.137-2.5 5 0 1.491 0.903 2.991 2 4 1.321 1.216 3.205 2.041 5 2 2.01-0.05 4.05-1.103 5.5-2.5 1.073-1.034 2-4 2-4v1c0 0.5-0.05 2.734-0.5 4-0.527 1.481-1.436 2.842-2.5 4-1.127 1.227-4 3-4 3v0.5s3.979-0.833 6-1c0.997-0.08 2-0.08 3 0 2.02 0.167 6 1 6 1v-0.5s-2.873-1.773-4-3c-1.064-1.158-1.973-2.519-2.5-4-0.45-1.266-0.5-4-0.5-4v-1s0.927 2.966 2 4c1.45 1.397 3.487 2.454 5.5 2.5 1.795 0.04 3.679-0.784 5-2 1.097-1.01 2-2.509 2-4 0-1.863-1.306-3.569-2.5-5-1.068-1.28-2.655-2.02-4-3-1.157-0.847-2.406-1.573-3.5-2.5-1.079-0.914-2.199-1.834-3-3-0.929-1.353-1.5-2-2-4.5"/>
  <path d="m330 962.36c-0.5-2.5-1.071-3.147-2-4.5-0.801-1.166-1.921-2.086-3-3-1.094-0.927-2.343-1.653-3.5-2.5-1.345-0.984-2.932-1.72-4-3-1.194-1.431-2.5-3.137-2.5-5 0-1.491 0.903-2.991 2-4 1.321-1.216 3.205-2.041 5-2 2.01 0.05 4.05 1.103 5.5 2.5 1.073 1.034 2 4 2 4v-1c0-0.5-0.05-2.734-0.5-4-0.527-1.481-1.436-2.842-2.5-4-1.127-1.227-4-3-4-3v-0.5s3.979 0.833 6 1c0.997 0.08 2 0.08 3 0 2.02-0.167 6-1 6-1v0.5s-2.873 1.773-4 3c-1.064 1.158-1.973 2.519-2.5 4-0.45 1.266-0.5 4-0.5 4v1s0.927-2.966 2-4c1.45-1.397 3.487-2.454 5.5-2.5 1.795-0.04 3.679 0.784 5 2 1.097 1.01 2 2.509 2 4 0 1.863-1.306 3.569-2.5 5-1.068 1.28-2.655 2.02-4 3-1.157 0.847-2.406 1.573-3.5 2.5-1.079 0.914-2.199 1.834-3 3-0.929 1.353-1.5 2-2 4.5"/>
 </g>
 </symbol>
            <symbol id="ytub" viewBox="0 0 512 512">
             <rect rx="110" ry="110" x="0" y="70" width="512" height="390" fill=" #d8362a "/>
             <polygon points="193,165 361,265 194,358" fill="#ffffff"/>
            </symbol>


 <symbol id="key_pic" viewBox="0 0 512 512">
    <ellipse cx="244" cy="160" rx="90" ry="60" fill="white" stroke="#000000" stroke-width="25"/>
    <rect x="226" y="225" width="40" height="25"  fill="#000000"/>
    <line x1="246" y1="210" x2="246" y2="506" stroke="#000000" stroke-width="30"/>  
    <line x1="246" y1="367" x2="290" y2="367" stroke="#000000" stroke-width="30"/>
    <line x1="246" y1="431" x2="320" y2="431" stroke="#000000" stroke-width="30"/>   
    <line x1="246" y1="490.999" x2="354" y2="490.999" stroke="#000000" stroke-width="30"/>     
    </symbol>

<symbol id="sadd2" viewBox="0 0 512 512">
     <circle r="256" cx="256" cy="256" fill="#fbd971" stroke="none"/>
     <circle r="43" cx="152" cy="162" fill="#af8066" stroke="none"/>
     <circle r="43" cx="347" cy="162" fill="#af8066" stroke="none"/>    
     <line x1="110" y1="353" x2="401" y2="353" stroke="#f0c419" stroke-width="30" stroke-linecap="round"/>   
    </symbol>

</svg>